<?xml version="1.0" encoding="UTF-8" standalone="no"?><svg xmlns="http://www.w3.org/2000/svg" xmlns:xlink="http://www.w3.org/1999/xlink" contentScriptType="application/ecmascript" contentStyleType="text/css" height="840px" preserveAspectRatio="none" style="width:1147px;height:840px;background:#FFFFFF;" version="1.1" viewBox="0 0 1147 840" width="1147px" zoomAndPan="magnify"><defs><filter height="300%" id="f14u1y1c7evh2n" width="300%" x="-1" y="-1"><feGaussianBlur result="blurOut" stdDeviation="2.0"/><feColorMatrix in="blurOut" result="blurOut2" type="matrix" values="0 0 0 0 0 0 0 0 0 0 0 0 0 0 0 0 0 0 .4 0"/><feOffset dx="4.0" dy="4.0" in="blurOut2" result="blurOut3"/><feBlend in="SourceGraphic" in2="blurOut3" mode="normal"/></filter></defs><g><text fill="#000000" font-family="sans-serif" font-size="18" lengthAdjust="spacing" textLength="234" x="454.25" y="29.4023">WordPress installation flow</text><line style="stroke:#A80036;stroke-width:1.0;stroke-dasharray:5.0,5.0;" x1="23" x2="23" y1="123.6875" y2="755.8984"/><line style="stroke:#A80036;stroke-width:1.0;stroke-dasharray:5.0,5.0;" x1="266.5" x2="266.5" y1="123.6875" y2="755.8984"/><line style="stroke:#A80036;stroke-width:1.0;stroke-dasharray:5.0,5.0;" x1="729.5" x2="729.5" y1="123.6875" y2="755.8984"/><line style="stroke:#A80036;stroke-width:1.0;stroke-dasharray:5.0,5.0;" x1="943.5" x2="943.5" y1="123.6875" y2="755.8984"/><line style="stroke:#A80036;stroke-width:1.0;stroke-dasharray:5.0,5.0;" x1="1078.5" x2="1078.5" y1="123.6875" y2="755.8984"/><text fill="#000000" font-family="sans-serif" font-size="14" lengthAdjust="spacing" textLength="31" x="5" y="120.7344">User</text><ellipse cx="23.5" cy="50.1992" fill="#FEFECE" filter="url(#f14u1y1c7evh2n)" rx="8" ry="8" style="stroke:#A80036;stroke-width:2.0;"/><path d="M23.5,58.1992 L23.5,85.1992 M10.5,66.1992 L36.5,66.1992 M23.5,85.1992 L10.5,100.1992 M23.5,85.1992 L36.5,100.1992 " fill="none" filter="url(#f14u1y1c7evh2n)" style="stroke:#A80036;stroke-width:2.0;"/><text fill="#000000" font-family="sans-serif" font-size="14" lengthAdjust="spacing" textLength="31" x="5" y="768.4336">User</text><ellipse cx="23.5" cy="781.3867" fill="#FEFECE" filter="url(#f14u1y1c7evh2n)" rx="8" ry="8" style="stroke:#A80036;stroke-width:2.0;"/><path d="M23.5,789.3867 L23.5,816.3867 M10.5,797.3867 L36.5,797.3867 M23.5,816.3867 L10.5,831.3867 M23.5,816.3867 L36.5,831.3867 " fill="none" filter="url(#f14u1y1c7evh2n)" style="stroke:#A80036;stroke-width:2.0;"/><rect fill="#FEFECE" filter="url(#f14u1y1c7evh2n)" height="30.4883" style="stroke:#A80036;stroke-width:1.5;" width="104" x="212.5" y="88.1992"/><text fill="#000000" font-family="sans-serif" font-size="14" lengthAdjust="spacing" textLength="90" x="219.5" y="108.7344">cms-installer</text><rect fill="#FEFECE" filter="url(#f14u1y1c7evh2n)" height="30.4883" style="stroke:#A80036;stroke-width:1.5;" width="104" x="212.5" y="754.8984"/><text fill="#000000" font-family="sans-serif" font-size="14" lengthAdjust="spacing" textLength="90" x="219.5" y="775.4336">cms-installer</text><rect fill="#FEFECE" filter="url(#f14u1y1c7evh2n)" height="30.4883" style="stroke:#A80036;stroke-width:1.5;" width="152" x="651.5" y="88.1992"/><text fill="#000000" font-family="sans-serif" font-size="14" lengthAdjust="spacing" textLength="138" x="658.5" y="108.7344">hosting-web-server</text><rect fill="#FEFECE" filter="url(#f14u1y1c7evh2n)" height="30.4883" style="stroke:#A80036;stroke-width:1.5;" width="152" x="651.5" y="754.8984"/><text fill="#000000" font-family="sans-serif" font-size="14" lengthAdjust="spacing" textLength="138" x="658.5" y="775.4336">hosting-web-server</text><text fill="#000000" font-family="sans-serif" font-size="14" lengthAdjust="spacing" textLength="128" x="876.5" y="120.7344">hosting-db-server</text><path d="M925.5,71.1992 C925.5,61.1992 943.5,61.1992 943.5,61.1992 C943.5,61.1992 961.5,61.1992 961.5,71.1992 L961.5,97.1992 C961.5,107.1992 943.5,107.1992 943.5,107.1992 C943.5,107.1992 925.5,107.1992 925.5,97.1992 L925.5,71.1992 " fill="#FEFECE" filter="url(#f14u1y1c7evh2n)" style="stroke:#000000;stroke-width:1.5;"/><path d="M925.5,71.1992 C925.5,81.1992 943.5,81.1992 943.5,81.1992 C943.5,81.1992 961.5,81.1992 961.5,71.1992 " fill="none" style="stroke:#000000;stroke-width:1.5;"/><text fill="#000000" font-family="sans-serif" font-size="14" lengthAdjust="spacing" textLength="128" x="876.5" y="768.4336">hosting-db-server</text><path d="M925.5,781.3867 C925.5,771.3867 943.5,771.3867 943.5,771.3867 C943.5,771.3867 961.5,771.3867 961.5,781.3867 L961.5,807.3867 C961.5,817.3867 943.5,817.3867 943.5,817.3867 C943.5,817.3867 925.5,817.3867 925.5,807.3867 L925.5,781.3867 " fill="#FEFECE" filter="url(#f14u1y1c7evh2n)" style="stroke:#000000;stroke-width:1.5;"/><path d="M925.5,781.3867 C925.5,791.3867 943.5,791.3867 943.5,791.3867 C943.5,791.3867 961.5,791.3867 961.5,781.3867 " fill="none" style="stroke:#000000;stroke-width:1.5;"/><rect fill="#FEFECE" filter="url(#f14u1y1c7evh2n)" height="30.4883" style="stroke:#A80036;stroke-width:1.5;" width="113" x="1020.5" y="88.1992"/><text fill="#000000" font-family="sans-serif" font-size="14" lengthAdjust="spacing" textLength="99" x="1027.5" y="108.7344">archive-server</text><rect fill="#FEFECE" filter="url(#f14u1y1c7evh2n)" height="30.4883" style="stroke:#A80036;stroke-width:1.5;" width="113" x="1020.5" y="754.8984"/><text fill="#000000" font-family="sans-serif" font-size="14" lengthAdjust="spacing" textLength="99" x="1027.5" y="775.4336">archive-server</text><polygon fill="#A80036" points="254.5,150.998,264.5,154.998,254.5,158.998,258.5,154.998" style="stroke:#A80036;stroke-width:1.0;"/><line style="stroke:#A80036;stroke-width:1.0;" x1="23.5" x2="260.5" y1="154.998" y2="154.998"/><text fill="#000000" font-family="sans-serif" font-size="13" lengthAdjust="spacing" textLength="130" x="30.5" y="150.2559">Command execution</text><line style="stroke:#A80036;stroke-width:1.0;" x1="266.5" x2="308.5" y1="184.3086" y2="184.3086"/><line style="stroke:#A80036;stroke-width:1.0;" x1="308.5" x2="308.5" y1="184.3086" y2="197.3086"/><line style="stroke:#A80036;stroke-width:1.0;" x1="267.5" x2="308.5" y1="197.3086" y2="197.3086"/><polygon fill="#A80036" points="277.5,193.3086,267.5,197.3086,277.5,201.3086,273.5,197.3086" style="stroke:#A80036;stroke-width:1.0;"/><text fill="#000000" font-family="sans-serif" font-size="13" lengthAdjust="spacing" textLength="108" x="273.5" y="179.5664">Generate init.php</text><polygon fill="#A80036" points="717.5,222.6191,727.5,226.6191,717.5,230.6191,721.5,226.6191" style="stroke:#A80036;stroke-width:1.0;"/><line style="stroke:#A80036;stroke-width:1.0;" x1="266.5" x2="723.5" y1="226.6191" y2="226.6191"/><text fill="#000000" font-family="sans-serif" font-size="13" lengthAdjust="spacing" textLength="145" x="273.5" y="221.877">Upload init.php via FTP</text><polygon fill="#A80036" points="277.5,251.9297,267.5,255.9297,277.5,259.9297,273.5,255.9297" style="stroke:#A80036;stroke-width:1.0;"/><line style="stroke:#A80036;stroke-width:1.0;stroke-dasharray:2.0,2.0;" x1="271.5" x2="728.5" y1="255.9297" y2="255.9297"/><text fill="#000000" font-family="sans-serif" font-size="13" lengthAdjust="spacing" textLength="16" x="283.5" y="251.1875">ok</text><polygon fill="#A80036" points="717.5,281.2402,727.5,285.2402,717.5,289.2402,721.5,285.2402" style="stroke:#A80036;stroke-width:1.0;"/><line style="stroke:#A80036;stroke-width:1.0;" x1="266.5" x2="723.5" y1="285.2402" y2="285.2402"/><text fill="#000000" font-family="sans-serif" font-size="13" lengthAdjust="spacing" textLength="173" x="273.5" y="280.498">Access init.php with http(s)</text><polygon fill="#A80036" points="1067,310.5508,1077,314.5508,1067,318.5508,1071,314.5508" style="stroke:#A80036;stroke-width:1.0;"/><line style="stroke:#A80036;stroke-width:1.0;" x1="729.5" x2="1073" y1="314.5508" y2="314.5508"/><text fill="#000000" font-family="sans-serif" font-size="13" lengthAdjust="spacing" textLength="286" x="736.5" y="309.8086">(init.php)Accessing the WordPress zip archive</text><polygon fill="#A80036" points="740.5,339.8613,730.5,343.8613,740.5,347.8613,736.5,343.8613" style="stroke:#A80036;stroke-width:1.0;"/><line style="stroke:#A80036;stroke-width:1.0;stroke-dasharray:2.0,2.0;" x1="734.5" x2="1078" y1="343.8613" y2="343.8613"/><text fill="#000000" font-family="sans-serif" font-size="13" lengthAdjust="spacing" textLength="113" x="746.5" y="339.1191">Send a zip archive</text><line style="stroke:#A80036;stroke-width:1.0;" x1="729.5" x2="771.5" y1="373.1719" y2="373.1719"/><line style="stroke:#A80036;stroke-width:1.0;" x1="771.5" x2="771.5" y1="373.1719" y2="386.1719"/><line style="stroke:#A80036;stroke-width:1.0;" x1="730.5" x2="771.5" y1="386.1719" y2="386.1719"/><polygon fill="#A80036" points="740.5,382.1719,730.5,386.1719,740.5,390.1719,736.5,386.1719" style="stroke:#A80036;stroke-width:1.0;"/><text fill="#000000" font-family="sans-serif" font-size="13" lengthAdjust="spacing" textLength="177" x="736.5" y="368.4297">(init.php) Extract zip archive</text><polygon fill="#A80036" points="277.5,411.4824,267.5,415.4824,277.5,419.4824,273.5,415.4824" style="stroke:#A80036;stroke-width:1.0;"/><line style="stroke:#A80036;stroke-width:1.0;stroke-dasharray:2.0,2.0;" x1="271.5" x2="728.5" y1="415.4824" y2="415.4824"/><text fill="#000000" font-family="sans-serif" font-size="13" lengthAdjust="spacing" textLength="16" x="283.5" y="410.7402">ok</text><polygon fill="#A80036" points="717.5,440.793,727.5,444.793,717.5,448.793,721.5,444.793" style="stroke:#A80036;stroke-width:1.0;"/><line style="stroke:#A80036;stroke-width:1.0;" x1="266.5" x2="723.5" y1="444.793" y2="444.793"/><text fill="#000000" font-family="sans-serif" font-size="13" lengthAdjust="spacing" textLength="141" x="273.5" y="440.0508">Delete init.php via FTP</text><polygon fill="#A80036" points="277.5,470.1035,267.5,474.1035,277.5,478.1035,273.5,474.1035" style="stroke:#A80036;stroke-width:1.0;"/><line style="stroke:#A80036;stroke-width:1.0;stroke-dasharray:2.0,2.0;" x1="271.5" x2="728.5" y1="474.1035" y2="474.1035"/><text fill="#000000" font-family="sans-serif" font-size="13" lengthAdjust="spacing" textLength="16" x="283.5" y="469.3613">ok</text><polygon fill="#A80036" points="717.5,499.4141,727.5,503.4141,717.5,507.4141,721.5,503.4141" style="stroke:#A80036;stroke-width:1.0;"/><line style="stroke:#A80036;stroke-width:1.0;" x1="266.5" x2="723.5" y1="503.4141" y2="503.4141"/><text fill="#000000" font-family="sans-serif" font-size="13" lengthAdjust="spacing" textLength="439" x="273.5" y="498.6719">Run WordPress setup-config (DB connection configuration) via http(s)</text><polygon fill="#A80036" points="931.5,528.7246,941.5,532.7246,931.5,536.7246,935.5,532.7246" style="stroke:#A80036;stroke-width:1.0;"/><line style="stroke:#A80036;stroke-width:1.0;" x1="729.5" x2="937.5" y1="532.7246" y2="532.7246"/><text fill="#000000" font-family="sans-serif" font-size="13" lengthAdjust="spacing" textLength="190" x="736.5" y="527.9824">(WordPress) Connection check</text><polygon fill="#A80036" points="740.5,558.0352,730.5,562.0352,740.5,566.0352,736.5,562.0352" style="stroke:#A80036;stroke-width:1.0;"/><line style="stroke:#A80036;stroke-width:1.0;stroke-dasharray:2.0,2.0;" x1="734.5" x2="942.5" y1="562.0352" y2="562.0352"/><text fill="#000000" font-family="sans-serif" font-size="13" lengthAdjust="spacing" textLength="16" x="746.5" y="557.293">ok</text><polygon fill="#A80036" points="277.5,587.3457,267.5,591.3457,277.5,595.3457,273.5,591.3457" style="stroke:#A80036;stroke-width:1.0;"/><line style="stroke:#A80036;stroke-width:1.0;stroke-dasharray:2.0,2.0;" x1="271.5" x2="728.5" y1="591.3457" y2="591.3457"/><text fill="#000000" font-family="sans-serif" font-size="13" lengthAdjust="spacing" textLength="16" x="283.5" y="586.6035">ok</text><polygon fill="#A80036" points="717.5,616.6563,727.5,620.6563,717.5,624.6563,721.5,620.6563" style="stroke:#A80036;stroke-width:1.0;"/><line style="stroke:#A80036;stroke-width:1.0;" x1="266.5" x2="723.5" y1="620.6563" y2="620.6563"/><text fill="#000000" font-family="sans-serif" font-size="13" lengthAdjust="spacing" textLength="257" x="273.5" y="615.9141">Run the install of WordPress with http(s).</text><polygon fill="#A80036" points="931.5,645.9668,941.5,649.9668,931.5,653.9668,935.5,649.9668" style="stroke:#A80036;stroke-width:1.0;"/><line style="stroke:#A80036;stroke-width:1.0;" x1="729.5" x2="937.5" y1="649.9668" y2="649.9668"/><text fill="#000000" font-family="sans-serif" font-size="13" lengthAdjust="spacing" textLength="173" x="736.5" y="645.2246">(WordPress) DB initial setup</text><polygon fill="#A80036" points="740.5,675.2773,730.5,679.2773,740.5,683.2773,736.5,679.2773" style="stroke:#A80036;stroke-width:1.0;"/><line style="stroke:#A80036;stroke-width:1.0;stroke-dasharray:2.0,2.0;" x1="734.5" x2="942.5" y1="679.2773" y2="679.2773"/><text fill="#000000" font-family="sans-serif" font-size="13" lengthAdjust="spacing" textLength="16" x="746.5" y="674.5352">ok</text><polygon fill="#A80036" points="277.5,704.5879,267.5,708.5879,277.5,712.5879,273.5,708.5879" style="stroke:#A80036;stroke-width:1.0;"/><line style="stroke:#A80036;stroke-width:1.0;stroke-dasharray:2.0,2.0;" x1="271.5" x2="728.5" y1="708.5879" y2="708.5879"/><text fill="#000000" font-family="sans-serif" font-size="13" lengthAdjust="spacing" textLength="16" x="283.5" y="703.8457">ok</text><polygon fill="#A80036" points="34.5,733.8984,24.5,737.8984,34.5,741.8984,30.5,737.8984" style="stroke:#A80036;stroke-width:1.0;"/><line style="stroke:#A80036;stroke-width:1.0;stroke-dasharray:2.0,2.0;" x1="28.5" x2="265.5" y1="737.8984" y2="737.8984"/><text fill="#000000" font-family="sans-serif" font-size="13" lengthAdjust="spacing" textLength="219" x="40.5" y="733.1563">Returns the result of the execution</text><!--MD5=[404324fd15dd2f3f58cffc015125bd9b]
@startuml
title: WordPress installation flow

actor User order 1
participant "cms-installer" order 2
participant "hosting-web-server" order 2
database "hosting-db-server" order 2
participant "archive-server" order 2

User -> "cms-installer": Command execution

"cms-installer" -> "cms-installer": Generate init.php
"cms-installer" -> "hosting-web-server": Upload init.php via FTP
"hosting-web-server" - -> "cms-installer": ok
"cms-installer" -> "hosting-web-server": Access init.php with http(s)
"hosting-web-server" -> "archive-server": (init.php)Accessing the WordPress zip archive
"archive-server" - -> "hosting-web-server": Send a zip archive
"hosting-web-server" -> "hosting-web-server": (init.php) Extract zip archive
"hosting-web-server" - -> "cms-installer": ok
"cms-installer" -> "hosting-web-server": Delete init.php via FTP
"hosting-web-server" - -> "cms-installer": ok
"cms-installer" -> "hosting-web-server": Run WordPress setup-config (DB connection configuration) via http(s)
"hosting-web-server" -> "hosting-db-server": (WordPress) Connection check
"hosting-db-server" - -> "hosting-web-server": ok
"hosting-web-server" - -> "cms-installer": ok
"cms-installer" -> "hosting-web-server": Run the install of WordPress with http(s).
"hosting-web-server" -> "hosting-db-server": (WordPress) DB initial setup
"hosting-db-server" - -> "hosting-web-server": ok
"hosting-web-server" - -> "cms-installer": ok

"cms-installer" - -> "User": Returns the result of the execution

@enduml

PlantUML version 1.2021.13(Mon Nov 01 20:38:45 JST 2021)
(GPL source distribution)
Java Runtime: Java(TM) SE Runtime Environment
JVM: Java HotSpot(TM) 64-Bit Server VM
Default Encoding: UTF-8
Language: ja
Country: JP
--></g></svg>